<?xml version="1.0" encoding="utf-8" ?>
<svg baseProfile="full" height="101px" version="1.1" viewBox="0,0,250,101" width="250px" xmlns="http://www.w3.org/2000/svg" xmlns:ev="http://www.w3.org/2001/xml-events" xmlns:xlink="http://www.w3.org/1999/xlink"><defs /><path d="M 10,89 Q 10,89 17.5,89.0 Q 25,89 26.5,68.5 Q 28,48 35.0,60.5 Q 42,73 41.5,81.5 Q 41,90 89.5,90.0 Q 138,90 148.0,82.0 Q 158,74 159.5,81.5 Q 161,89 167.5,89.5 Q 174,90 175.5,58.5 Q 177,27 197.5,26.5 Q 218,26 221.5,28.5 Q 225,31 224.0,36.0 Q 223,41 210.0,43.0 Q 197,45 198.0,51.5 Q 199,58 215.5,55.5 Q 232,53 235.5,47.5 Q 239,42 239.0,35.0 Q 239,28 231.0,20.0 Q 223,12 193.5,12.0 Q 164,12 161.0,36.0 Q 158,60 147.5,51.5 Q 137,43 118.0,43.0 Q 99,43 96.5,41.0 Q 94,39 94.0,35.0 Q 94,31 97.0,28.5 Q 100,26 123.5,26.0 Q 147,26 148.0,19.5 Q 149,13 122.0,12.5 Q 95,12 88.5,17.5 Q 82,23 70.0,45.5 Q 58,68 42.0,39.5 Q 26,11 19.0,10.5 Q 12,10 11.0,49.5 Z" fill="black" stroke="none" /></svg>